<?xml version="1.0" encoding="UTF-8"?>
<svg width="700pt" height="700pt" version="1.1" viewBox="0 0 700 700" xmlns="http://www.w3.org/2000/svg" xmlns:xlink="http://www.w3.org/1999/xlink">
 <defs>
  <symbol id="n" overflow="visible">
   <path d="m31.266-1.875c-1.6172 0.84375-3.2969 1.4766-5.0469 1.8906-1.7422 0.42578-3.5586 0.64062-5.4531 0.64062-5.668 0-10.156-1.582-13.469-4.75-3.3125-3.1641-4.9688-7.4609-4.9688-12.891 0-5.4375 1.6562-9.7383 4.9688-12.906 3.3125-3.1641 7.8008-4.75 13.469-4.75 1.8945 0 3.7109 0.21484 5.4531 0.64062 1.75 0.42969 3.4297 1.0586 5.0469 1.8906v7.0469c-1.625-1.1133-3.2305-1.9258-4.8125-2.4375-1.5742-0.51953-3.2344-0.78125-4.9844-0.78125-3.1367 0-5.6016 1.0078-7.3906 3.0156-1.793 2-2.6875 4.7617-2.6875 8.2812 0 3.5117 0.89453 6.2734 2.6875 8.2812 1.7891 2 4.2539 3 7.3906 3 1.75 0 3.4102-0.25391 4.9844-0.76562 1.582-0.51953 3.1875-1.332 4.8125-2.4375z"/>
  </symbol>
  <symbol id="h" overflow="visible">
   <path d="m22.875-18.578c-0.71094-0.33203-1.418-0.57812-2.125-0.73438-0.71094-0.15625-1.418-0.23438-2.125-0.23438-2.1055 0-3.7266 0.67188-4.8594 2.0156-1.125 1.3438-1.6875 3.2656-1.6875 5.7656v11.766h-8.1562v-25.531h8.1562v4.2031c1.0508-1.6758 2.2539-2.8945 3.6094-3.6562 1.3633-0.76953 2.9922-1.1562 4.8906-1.1562 0.26953 0 0.56641 0.011719 0.89062 0.03125 0.32031 0.023437 0.78516 0.074219 1.3906 0.15625z"/>
  </symbol>
  <symbol id="a" overflow="visible">
   <path d="m29.391-12.828v2.3281h-19.062c0.19531 1.9062 0.88281 3.3398 2.0625 4.2969 1.1875 0.96094 2.8438 1.4375 4.9688 1.4375 1.7188 0 3.4766-0.25391 5.2812-0.76562 1.8008-0.50781 3.6484-1.2812 5.5469-2.3125v6.2969c-1.9297 0.73047-3.8594 1.2773-5.7969 1.6406-1.9297 0.375-3.8555 0.5625-5.7812 0.5625-4.6172 0-8.2031-1.1719-10.766-3.5156s-3.8438-5.6328-3.8438-9.875c0-4.1641 1.2539-7.4414 3.7656-9.8281 2.5195-2.3828 5.9844-3.5781 10.391-3.5781 4.0078 0 7.2188 1.2109 9.625 3.625 2.4062 2.418 3.6094 5.6484 3.6094 9.6875zm-8.375-2.7188c0-1.5391-0.45312-2.7852-1.3594-3.7344-0.90625-0.95703-2.0898-1.4375-3.5469-1.4375-1.5859 0-2.8711 0.44922-3.8594 1.3438-0.98047 0.88672-1.5898 2.1641-1.8281 3.8281z"/>
  </symbol>
  <symbol id="b" overflow="visible">
   <path d="m15.359-11.484c-1.6992 0-2.9805 0.29297-3.8438 0.875-0.85547 0.57422-1.2812 1.4219-1.2812 2.5469 0 1.0312 0.34375 1.8398 1.0312 2.4219 0.69531 0.58594 1.6602 0.875 2.8906 0.875 1.5312 0 2.8164-0.54688 3.8594-1.6406 1.0508-1.1016 1.5781-2.4844 1.5781-4.1406v-0.9375zm12.469-3.0781v14.562h-8.2344v-3.7812c-1.0938 1.5547-2.3242 2.6836-3.6875 3.3906-1.3672 0.69531-3.0273 1.0469-4.9844 1.0469-2.6484 0-4.7969-0.76953-6.4531-2.3125-1.6484-1.5391-2.4688-3.5391-2.4688-6 0-2.9883 1.0312-5.1797 3.0938-6.5781 2.0625-1.4062 5.2969-2.1094 9.7031-2.1094h4.7969v-0.64062c0-1.2891-0.51172-2.2344-1.5312-2.8281-1.0117-0.60156-2.5938-0.90625-4.75-0.90625-1.75 0-3.3828 0.17969-4.8906 0.53125-1.5 0.34375-2.8984 0.86719-4.1875 1.5625v-6.2188c1.75-0.42578 3.5039-0.75 5.2656-0.96875 1.7578-0.21875 3.5234-0.32812 5.2969-0.32812 4.5938 0 7.9102 0.91406 9.9531 2.7344 2.0508 1.8125 3.0781 4.7617 3.0781 8.8438z"/>
  </symbol>
  <symbol id="g" overflow="visible">
   <path d="m12.828-32.766v7.2344h8.4062v5.8438h-8.4062v10.828c0 1.1797 0.23438 1.9805 0.70312 2.4062 0.47656 0.41797 1.4141 0.625 2.8125 0.625h4.1875v5.8281h-7c-3.2188 0-5.5-0.67188-6.8438-2.0156s-2.0156-3.625-2.0156-6.8438v-10.828h-4.0625v-5.8438h4.0625v-7.2344z"/>
  </symbol>
  <symbol id="f" overflow="visible">
   <path d="m21.281-21.781v-13.672h8.2031v35.453h-8.2031v-3.6875c-1.125 1.5-2.3672 2.6016-3.7188 3.2969-1.3438 0.69531-2.9062 1.0469-4.6875 1.0469-3.1484 0-5.7305-1.25-7.75-3.75-2.0234-2.5-3.0312-5.7109-3.0312-9.6406 0-3.9375 1.0078-7.1562 3.0312-9.6562 2.0195-2.5 4.6016-3.75 7.75-3.75 1.7578 0 3.3164 0.35547 4.6719 1.0625 1.3633 0.71094 2.6094 1.8086 3.7344 3.2969zm-5.375 16.516c1.75 0 3.082-0.63281 4-1.9062 0.91406-1.2812 1.375-3.1328 1.375-5.5625 0-2.4375-0.46094-4.2891-1.375-5.5625-0.91797-1.2812-2.25-1.9219-4-1.9219-1.7305 0-3.0586 0.64062-3.9844 1.9219-0.91797 1.2734-1.375 3.125-1.375 5.5625 0 2.4297 0.45703 4.2812 1.375 5.5625 0.92578 1.2734 2.2539 1.9062 3.9844 1.9062z"/>
  </symbol>
  <symbol id="e" overflow="visible">
   <path d="m17.5-5.2656c1.75 0 3.082-0.63281 4-1.9062 0.91406-1.2812 1.375-3.1328 1.375-5.5625 0-2.4375-0.46094-4.2891-1.375-5.5625-0.91797-1.2812-2.25-1.9219-4-1.9219s-3.0938 0.64844-4.0312 1.9375c-0.92969 1.2812-1.3906 3.1328-1.3906 5.5469 0 2.418 0.46094 4.2656 1.3906 5.5469 0.9375 1.2812 2.2812 1.9219 4.0312 1.9219zm-5.4219-16.516c1.125-1.4883 2.3672-2.5859 3.7344-3.2969 1.3633-0.70703 2.9375-1.0625 4.7188-1.0625 3.1445 0 5.7266 1.25 7.75 3.75 2.0195 2.5 3.0312 5.7188 3.0312 9.6562 0 3.9297-1.0117 7.1406-3.0312 9.6406-2.0234 2.5-4.6055 3.75-7.75 3.75-1.7812 0-3.3555-0.35156-4.7188-1.0469-1.3672-0.70703-2.6094-1.8047-3.7344-3.2969v3.6875h-8.1562v-35.453h8.1562z"/>
  </symbol>
  <symbol id="d" overflow="visible">
   <path d="m0.5625-25.531h8.1719l6.8594 17.328 5.8281-17.328h8.1562l-10.734 27.953c-1.0742 2.832-2.3281 4.8164-3.7656 5.9531-1.4375 1.1328-3.3359 1.7031-5.6875 1.7031h-4.7188v-5.3594h2.5469c1.3828 0 2.3906-0.22656 3.0156-0.67188 0.63281-0.4375 1.1289-1.2266 1.4844-2.3594l0.21875-0.70312z"/>
  </symbol>
  <symbol id="c" overflow="visible">
   <path d="m17.906-20.859c1.3828 0 2.4297-0.30078 3.1406-0.90625 0.71875-0.60156 1.0781-1.5 1.0781-2.6875 0-1.1641-0.35938-2.0547-1.0781-2.6719-0.71094-0.61328-1.7578-0.92188-3.1406-0.92188h-4.8438v7.1875zm0.29688 14.891c1.7695 0 3.0977-0.36719 3.9844-1.1094 0.88281-0.75 1.3281-1.875 1.3281-3.375 0-1.4766-0.44531-2.582-1.3281-3.3125-0.875-0.73828-2.2031-1.1094-3.9844-1.1094h-5.1406v8.9062zm8.1562-12.234c1.8828 0.54297 3.3438 1.5547 4.375 3.0312 1.0391 1.4688 1.5625 3.2773 1.5625 5.4219 0 3.2812-1.1094 5.7305-3.3281 7.3438-2.2188 1.6055-5.5938 2.4062-10.125 2.4062h-14.562v-34.031h13.172c4.7266 0 8.1484 0.71875 10.266 2.1562 2.125 1.4297 3.1875 3.7148 3.1875 6.8594 0 1.6562-0.39062 3.0703-1.1719 4.2344-0.77344 1.1562-1.8984 2.0156-3.375 2.5781z"/>
  </symbol>
  <symbol id="m" overflow="visible">
   <path d="m29.578-15.547v15.547h-8.2031v-11.891c0-2.207-0.054688-3.7266-0.15625-4.5625-0.09375-0.83203-0.26172-1.4453-0.5-1.8438-0.32422-0.53125-0.76172-0.94141-1.3125-1.2344-0.54297-0.30078-1.1641-0.45312-1.8594-0.45312-1.6992 0-3.0391 0.65625-4.0156 1.9688-0.96875 1.3125-1.4531 3.1328-1.4531 5.4531v12.562h-8.1562v-25.531h8.1562v3.75c1.2266-1.4883 2.5352-2.5859 3.9219-3.2969 1.3828-0.70703 2.9102-1.0625 4.5781-1.0625 2.9453 0 5.1797 0.90625 6.7031 2.7188 1.5312 1.8047 2.2969 4.4297 2.2969 7.875z"/>
  </symbol>
  <symbol id="l" overflow="visible">
   <path d="m13.062-27.391v20.766h3.1406c3.582 0 6.3164-0.89062 8.2031-2.6719 1.8945-1.7812 2.8438-4.3633 2.8438-7.75 0-3.375-0.94531-5.9414-2.8281-7.7031-1.875-1.7578-4.6172-2.6406-8.2188-2.6406zm-8.7812-6.6406h9.25c5.1641 0 9.0156 0.37109 11.547 1.1094 2.5312 0.74219 4.6953 1.9922 6.5 3.75 1.6016 1.5312 2.7891 3.3047 3.5625 5.3125 0.76953 2 1.1562 4.2734 1.1562 6.8125 0 2.5742-0.38672 4.8672-1.1562 6.875-0.77344 2.0117-1.9609 3.7812-3.5625 5.3125-1.8242 1.7734-4.0117 3.0273-6.5625 3.7656-2.5547 0.73047-6.3828 1.0938-11.484 1.0938h-9.25z"/>
  </symbol>
  <symbol id="k" overflow="visible">
   <path d="m0.70312-25.531h8.1562l6.3594 17.641 6.3438-17.641h8.1719l-10.047 25.531h-8.9531z"/>
  </symbol>
  <symbol id="j" overflow="visible">
   <path d="m3.9219-25.531h8.1562v25.531h-8.1562zm0-9.9219h8.1562v6.6406h-8.1562z"/>
  </symbol>
  <symbol id="i" overflow="visible">
   <path d="m23.859-24.719v6.1875c-1.75-0.72656-3.4375-1.2734-5.0625-1.6406-1.625-0.36328-3.1562-0.54688-4.5938-0.54688-1.5547 0-2.7109 0.19922-3.4688 0.59375-0.75 0.38672-1.125 0.98047-1.125 1.7812 0 0.65625 0.28516 1.1641 0.85938 1.5156 0.57031 0.34375 1.5938 0.60156 3.0625 0.76562l1.4375 0.20312c4.1758 0.53125 6.9844 1.4062 8.4219 2.625 1.4453 1.2109 2.1719 3.1172 2.1719 5.7188 0 2.7188-1.0078 4.7617-3.0156 6.125-2 1.3672-4.9922 2.0469-8.9688 2.0469-1.6875 0-3.4336-0.13672-5.2344-0.40625-1.793-0.25781-3.6406-0.65625-5.5469-1.1875v-6.2031c1.625 0.79297 3.2891 1.3867 5 1.7812 1.7188 0.39844 3.457 0.59375 5.2188 0.59375 1.5938 0 2.7891-0.21875 3.5938-0.65625 0.8125-0.4375 1.2188-1.0938 1.2188-1.9688 0-0.72656-0.28125-1.2695-0.84375-1.625-0.55469-0.35156-1.6562-0.62891-3.3125-0.82812l-1.4375-0.1875c-3.625-0.44531-6.168-1.2852-7.625-2.5156-1.4609-1.2383-2.1875-3.1094-2.1875-5.6094 0-2.707 0.92188-4.7109 2.7656-6.0156 1.8516-1.3125 4.6953-1.9688 8.5312-1.9688 1.5 0 3.0781 0.11719 4.7344 0.34375 1.6562 0.23047 3.457 0.58984 5.4062 1.0781z"/>
  </symbol>
 </defs>
 <g>
  <path d="m344.4 161.36c6.6094 2.7188 12.852 4.8633 15.402 4.3984 6.168-2.2227 8.4648-9.1094 9.1562-11.977 1.332-5.5078 0.71875-11.199-1.5234-15.492-0.88672 1.4375-1.8008 3.043-2.5391 4.3281-4.6172 8.0938-10.301 18.062-20.496 18.742m98.934 127.97c-3.043 0-6.0078-1.4727-7.8125-4.1992-4.4766-6.8047-5.9609-13.758-7.1562-19.348-0.41016-1.9023-0.93359-4.3867-1.4375-5.6914-1.5703 0.035156-5.9102 0.70703-16.102 5.3555-12.645 5.8438-19.766 8.0078-25.852 4.4609-5.5625-3.2383-6.0391-9.0508-6.3008-12.172-0.17578-2.1719-0.26953-3.293-1.0469-4.125-0.17578 0.57031-0.35156 1.1406-0.50391 1.6367-1.707 5.5625-4.0508 13.195-11.824 15.68-8.0742 2.6211-15.492-3.1016-17.93-4.9688-8.0273-6.1875-10.977-14.324-13.348-20.859-3.4414-9.5391-4.1523-11.516-18.301-8.1289-25.461 6.0781-37.035 7.3555-42.793-0.48438-5.3672-7.2969-0.66406-15.203 4.3281-23.574 6.7891-11.398 15.242-25.574 8.7578-41.086-1.8867-4.4453-6.8984-16.316 0.80078-23.812 8.8672-8.6211 23.484-1.957 43.699 7.2461 1.457 0.66016 3.0625 1.3906 4.75 2.1445-0.98828-1.418-1.5938-3.1172-1.668-4.9648-1.0859-26.207 12.973-51.734 33.41-60.695 13.859-6.0859 28.16-3.2109 39.23 7.8672 2.6016 2.6445 4.5352 2.707 6.6523 1.9883 8.4102-2.8281 19.488-18.871 21.73-36.117 0.79297-6.1445 0.93359-16.996-6.4883-22.934-4.6211 0.55859-16.574 5.6953-24.676 9.1758-14.637 6.2812-28.746 12.551-38.23 12.16-17.902-0.28906-32.164 10.715-47.133 22.156-21.578 16.504-46.031 35.215-84.16 20.266-3.3203-1.3164-5.6172-4.4062-5.8984-7.9648-1.707-21.84 17.434-31.91 32.824-40.012 12.312-6.4648 23.934-12.59 25.742-22.594 0.35547-2 0.50391-3.5117 0.55078-4.6211-4.918 1.8125-16.137 8.5781-41.066 31.566-5.4414 5.0312-7.6719 7.0938-12.496 6.168-4.2305-0.82031-7.3359-4.4219-7.543-8.7266-0.1875-4.1523 1.4766-8.9414 4.4336-17.031 1.7656-4.8281 3.7695-10.305 4.3516-13.75 0.84766-5.0781 5.6367-8.5195 10.742-7.6641 4.7773 0.79688 8.1016 5.0977 7.7734 9.8281 22.102-18.059 34.887-22.91 44.25-17.777 7.1953 3.9453 9.6797 12.469 7.3711 25.312-3.4219 18.984-20.418 27.926-35.418 35.809-12.207 6.4336-19.469 10.82-21.973 16.344 24.418 6.5898 40.629-5.8047 59.176-19.98 16.023-12.246 34.496-26.332 58.574-25.996h0.058594c5.9062 0 19.656-5.8984 30.695-10.648 21.477-9.2227 33.051-13.793 41.113-8.4844 12.508 8.2422 18.312 23.473 15.934 41.797-2.6602 20.504-16.215 45.34-34.281 51.418-9.418 3.1797-18.594 0.83984-25.855-6.5352-5.6172-5.6172-11.676-6.918-18.48-3.9219-3.7773 1.6523-7.5391 4.6133-10.863 8.5508 0.71875-0.21484 1.4648-0.36328 2.25-0.45703 3.2383-0.38281 8.1211 0.24219 12.871 5.3281 8.3438 8.9336 11.535 22.691 8.3359 35.926-2.9336 12.078-10.867 21.504-21.215 25.199-9.7188 3.4922-22.785-1.8945-43.102-11.145-5.6836-2.5859-14.059-6.4023-19.844-8.3242 0.082032 0.21484 0.17578 0.4375 0.26953 0.66406 10.137 24.219-2.418 45.293-9.9297 57.883-0.019531 0.046875-0.046875 0.09375-0.074218 0.14062 3.9648-0.63281 9.7539-1.7812 18.172-3.7969 28.008-6.7305 35.203 6.168 40.199 19.934 1.8555 5.125 3.4609 9.5586 7.1758 12.414 0.019532 0.027344 0.046876 0.039062 0.066407 0.054688 0.15625-0.50391 0.31641-0.99609 0.44922-1.4375 1.6211-5.2812 3.6367-11.852 9.9844-14.949 2.5586-1.2617 6.7383-2.3047 12.199-0.22656 10.668 4.125 13.992 11.277 15.156 16.68 1.625-0.65234 3.7266-1.5508 6.4219-2.8008 16.008-7.2891 25.473-8.7734 32.703-5.1406 7.75 3.8984 9.4844 12.02 10.883 18.543 0.95312 4.4805 1.9531 9.1094 4.5 12.992 2.8359 4.3047 1.6445 10.09-2.668 12.93-1.5781 1.0352-3.3633 1.5273-5.1172 1.5273" fill-rule="evenodd"/>
  <path d="m177.57 360.4c-4.0977 0-7.832-2.707-8.9805-6.8008-1.3438-4.8008 1.3086-9.8125 6.0391-11.387l3.5312-1.1758c4.6562-1.5508 9.7344 0.78125 11.59 5.3359 1.8594 4.5547-0.14062 9.7617-4.5742 11.91l-1.4062 0.69141c-0.63672 0.30859-1.3008 0.53906-1.9805 0.69922l-2.1172 0.49609c-0.70312 0.15625-1.4102 0.23047-2.1016 0.23047" fill-rule="evenodd"/>
  <path d="m253.56 538.15c-3.4531 0-6.7773-1.9336-8.3906-5.2461l-18.836-38.648-30.371-4.0977c-0.92969-0.12891-1.8477-0.40234-2.6953-0.79297l-52.34-24.434c-1.207-0.5625-2.2695-1.375-3.1289-2.3711-3.1523-3.6602-6.207-7.3945-9.1641-11.199-0.83984-1.0859-1.4375-2.3438-1.7266-3.6797l-10.016-44.66c-0.59766-2.6406 0-5.4219 1.6133-7.5977l28.281-38.098c0.89453-1.2031 2.0703-2.1758 3.4258-2.8359l25.406-12.312c0.63281-0.29688 1.2969-0.53125 1.9688-0.69141l61.629-14.23c2.5391-0.60937 5.2344-0.085937 7.3984 1.4062l26.012 17.941 31.828 10.016 31.836-1.2539c2.1953-0.027344 4.2461 0.57031 5.9648 1.8594l49.914 37.398c0.77344 0.57812 1.4453 1.2695 1.9961 2.0547l19.434 27.234c2.9961 4.1992 2.0156 10.023-2.1758 13.02-4.207 2.9961-10.043 2.0234-13.02-2.1836l-18.59-26.059-46.098-34.543-30.156 1.1836c-1.0391 0.027344-2.1484-0.10156-3.1641-0.41797l-34.711-10.93c-0.88672-0.28125-1.7266-0.69141-2.4922-1.2227l-23.781-16.391-56.598 13.074-22.402 10.848-24.367 32.824 8.6133 38.426c1.9531 2.4844 3.9492 4.918 5.9922 7.3281l49.227 22.977 33.914 4.582c3.0898 0.42187 5.7695 2.3516 7.1406 5.1641l21.012 43.137c2.2578 4.6406 0.33594 10.223-4.3047 12.48-1.3164 0.64453-2.707 0.94141-4.0781 0.94141" fill-rule="evenodd"/>
  <path d="m83.199 333.23c-2.7266 0-5.4141-1.1211-7.2148-3.3438-3.2109-3.9648-2.8945-9.5664 1.0156-12.832 0.074219-0.066407 0.65234-0.52344 0.73047-0.57813 4.7305-4.6953 9.125-8.0078 13-10.93 6.793-5.1328 12.16-9.1836 17.789-19.32 3.7344-6.7188 3.293-8.3984 1.6719-14.652-1.6172-6.207-3.8359-14.719-2.8203-29.84 0.93359-14.113 0.51562-17.754 0.054687-21.598-0.55859-4.7422-1.1289-9.6211-0.0625-26.77 1.0156-16.23-1.5859-18.152-7.2734-22.352-4.1406-3.0625-5.0195-8.9141-1.957-13.059 3.0703-4.1445 8.9219-5.0195 13.055-1.957 11.145 8.2383 16.203 16.109 14.805 38.535-0.96094 15.457-0.48438 19.496-0.027344 23.41 0.53125 4.5234 1.082 9.1992 0.027344 25.031-0.80469 12.094 0.82031 18.367 2.2656 23.891 2.3828 9.168 3.4375 16.102-3.4219 28.43-7.543 13.59-15.336 19.461-22.859 25.145-3.7227 2.8086-7.2344 5.4531-10.965 9.1953-0.5625 0.55078-1.1484 1.043-1.7656 1.5195-1.7656 1.3828-3.9102 2.0742-6.0469 2.0742" fill-rule="evenodd"/>
  <path d="m536.67 233.33c-15.438 0-28 12.562-28 28v170.43c0 3.0391-1.4961 5.9062-3.9961 7.6523-18.301 12.777-27.113 34.516-22.996 56.707 4.0977 22.102 21.645 39.828 43.66 44.109 16.848 3.2695 33.965-0.97656 46.918-11.664 12.973-10.688 20.414-26.453 20.414-43.234 0-18.254-8.9805-35.418-24.016-45.918-2.4922-1.7461-3.9844-4.6133-3.9844-7.6523v-170.43c0-15.438-12.562-28-28-28m-0.13281 326.65c-4.8984 0-9.8359-0.47656-14.766-1.4258-29.473-5.7305-52.965-29.449-58.453-59.023-5.1602-27.832 5.0117-55.145 26.684-72.445v-165.75c0-25.73 20.934-46.664 46.668-46.664 25.73 0 46.664 20.934 46.664 46.664v165.76c17.621 14.129 28 35.551 28 58.238 0 22.383-9.9102 43.391-27.195 57.645-13.477 11.105-30.27 17.004-47.602 17.004" fill-rule="evenodd"/>
  <path d="m536.67 466.67c-10.297 0-18.668 8.3711-18.668 18.664 0 10.297 8.3711 18.668 18.668 18.668 10.293 0 18.664-8.3711 18.664-18.668 0-10.293-8.3711-18.664-18.664-18.664m0 56c-20.59 0-37.336-16.746-37.336-37.336 0-20.59 16.746-37.332 37.336-37.332 20.59 0 37.332 16.742 37.332 37.332 0 20.59-16.742 37.336-37.332 37.336" fill-rule="evenodd"/>
  <path d="m536.67 466.67c-5.1523 0-9.3359-4.1836-9.3359-9.3359v-56c0-5.1523 4.1836-9.332 9.3359-9.332 5.1523 0 9.332 4.1797 9.332 9.332v56c0 5.1523-4.1797 9.3359-9.332 9.3359" fill-rule="evenodd"/>
  <path d="m350 560c-154.39 0-280-125.61-280-280s125.61-280 280-280 280 125.61 280 280c0 5.1523-4.1797 9.332-9.332 9.332-5.1523 0-9.3359-4.1797-9.3359-9.332 0-144.1-117.23-261.33-261.33-261.33s-261.33 117.23-261.33 261.33 117.23 261.33 261.33 261.33c23.164 0 46.145-3.0312 68.281-9.0039 5.0039-1.3359 10.109 1.6133 11.445 6.5781 1.3438 4.9766-1.5977 10.098-6.582 11.441-23.723 6.4062-48.336 9.6523-73.145 9.6523" fill-rule="evenodd"/>
  <use x="70" y="700" xlink:href="#n"/>
  <use x="104.25" y="700" xlink:href="#h"/>
  <use x="127.261719" y="700" xlink:href="#a"/>
  <use x="158.914062" y="700" xlink:href="#b"/>
  <use x="190.402344" y="700" xlink:href="#g"/>
  <use x="212.710937" y="700" xlink:href="#a"/>
  <use x="244.363281" y="700" xlink:href="#f"/>
  <use x="294.015625" y="700" xlink:href="#e"/>
  <use x="327.417969" y="700" xlink:href="#d"/>
  <use x="374.085938" y="700" xlink:href="#c"/>
  <use x="409.65625" y="700" xlink:href="#a"/>
  <use x="441.304687" y="700" xlink:href="#m"/>
  <use x="490.773438" y="700" xlink:href="#l"/>
  <use x="529.511719" y="700" xlink:href="#b"/>
  <use x="561.003906" y="700" xlink:href="#k"/>
  <use x="591.421875" y="700" xlink:href="#j"/>
  <use x="607.417969" y="700" xlink:href="#i"/>
 </g>
</svg>
